<?xml version="1.0" standalone="no"?>
<!DOCTYPE svg PUBLIC "-//W3C//DTD SVG 20010904//EN"
 "http://www.w3.org/TR/2001/REC-SVG-20010904/DTD/svg10.dtd">
<svg version="1.0" xmlns="http://www.w3.org/2000/svg"
 width="261.000000pt" height="294.000000pt" viewBox="0 0 261.000000 294.000000"
 preserveAspectRatio="xMidYMid meet">
<metadata>
Orisha Community of Michigan
</metadata>
<g transform="translate(0.000000,294.000000) scale(0.100000,-0.100000)"
fill="#000000" stroke="none">
<path d="M900 2705 c-14 -8 -33 -14 -43 -15 -10 0 -20 -7 -23 -15 -4 -8 -12
-15 -19 -15 -7 0 -31 -24 -53 -54 -40 -53 -104 -96 -143 -96 -40 0 -152 -93
-185 -155 -6 -11 -27 -50 -47 -87 -20 -37 -48 -100 -61 -140 -13 -40 -33 -97
-45 -126 -12 -29 -21 -73 -21 -98 0 -25 -6 -55 -12 -67 -13 -22 -22 -113 -34
-335 -5 -102 -3 -136 11 -190 21 -78 118 -307 140 -332 8 -9 15 -20 15 -24 0
-12 58 -83 118 -144 29 -30 69 -75 90 -101 72 -90 204 -211 231 -211 6 0 11
-3 11 -8 0 -7 94 -82 194 -154 53 -39 232 -148 301 -185 22 -12 56 -30 75 -42
19 -11 42 -23 50 -27 8 -3 22 -10 30 -15 8 -5 22 -12 30 -15 8 -3 32 -13 54
-22 26 -11 69 -16 135 -17 l96 0 72 47 c39 27 75 48 78 48 4 0 21 6 38 14 18
8 56 22 86 32 30 11 74 36 98 58 41 36 111 133 145 201 15 30 42 145 53 220 3
22 9 63 14 90 6 28 10 172 10 320 1 272 -5 339 -44 495 -13 54 -31 130 -41
180 -3 14 -12 39 -19 55 -7 17 -23 55 -35 85 -12 30 -26 63 -31 72 -5 10 -9
23 -9 28 0 30 -123 264 -170 324 -49 62 -231 225 -277 247 -24 11 -45 25 -49
30 -3 5 -16 9 -29 9 -13 0 -67 20 -119 45 -53 25 -106 45 -119 45 -12 1 -33 7
-47 15 -14 8 -37 14 -52 15 -15 0 -53 7 -85 15 -78 20 -327 20 -363 0z m347
-60 c19 -8 52 -15 72 -15 20 -1 47 -7 61 -15 14 -8 39 -15 55 -15 17 0 48 -11
70 -25 76 -46 119 -65 146 -65 14 0 32 -6 38 -14 6 -7 25 -16 41 -20 19 -3 57
-32 102 -76 39 -38 79 -72 87 -75 9 -3 30 -24 46 -46 17 -23 42 -57 57 -78 28
-36 40 -59 98 -186 79 -173 120 -275 120 -302 0 -13 6 -36 14 -51 7 -15 21
-63 31 -107 9 -44 24 -111 33 -150 14 -57 17 -125 16 -370 -1 -311 -1 -306
-51 -525 -15 -68 -77 -177 -135 -240 -32 -34 -92 -70 -118 -70 -12 0 -52 -16
-120 -48 -19 -9 -51 -28 -70 -43 -57 -43 -100 -52 -179 -40 -59 9 -159 48
-211 81 -8 6 -25 14 -37 19 -11 6 -24 15 -28 20 -3 6 -14 11 -24 11 -10 0 -24
7 -31 15 -7 8 -18 15 -26 15 -7 0 -41 19 -76 43 -35 24 -70 46 -78 50 -27 12
-54 31 -139 97 -112 87 -149 114 -196 147 -44 31 -126 109 -141 135 -5 9 -34
43 -64 75 -187 201 -188 203 -262 373 -60 138 -87 252 -76 330 4 30 10 109 14
175 3 69 12 133 20 152 8 17 14 50 14 73 0 44 25 133 47 165 7 11 13 30 13 43
0 13 6 36 14 50 7 15 30 61 51 103 57 119 147 209 208 209 37 0 128 70 170
130 7 11 38 33 68 50 52 29 58 30 187 30 96 0 143 -4 169 -15z"/>
<path d="M870 2553 c-22 -20 -40 -45 -40 -55 0 -10 -4 -18 -10 -18 -19 0 -10
-32 10 -37 11 -3 20 -11 20 -19 0 -7 8 -21 19 -31 10 -10 21 -30 25 -45 4 -19
13 -28 26 -28 23 0 27 -29 8 -48 -10 -10 -10 -15 2 -22 8 -5 17 -7 21 -5 3 3
11 -7 17 -20 7 -14 15 -25 20 -25 14 0 181 -171 187 -191 4 -11 13 -19 21 -19
8 0 14 -4 14 -10 0 -5 31 -63 70 -127 38 -64 75 -133 81 -153 6 -19 17 -49 25
-67 8 -17 14 -37 14 -44 0 -16 18 -73 36 -117 8 -18 18 -94 24 -170 12 -167
28 -290 41 -313 5 -10 9 -28 9 -41 0 -13 7 -36 15 -52 8 -16 18 -47 22 -69 4
-28 16 -49 35 -65 32 -27 35 -50 12 -94 -24 -46 -7 -78 42 -78 57 0 73 -21 67
-85 -8 -72 4 -145 23 -145 8 0 17 6 20 14 3 8 17 17 32 21 47 12 130 55 136
71 3 9 6 23 6 33 0 24 35 50 59 44 17 -4 21 -1 21 20 0 13 -7 30 -15 37 -8 7
-15 20 -15 29 0 9 -5 22 -11 28 -16 16 -1 37 16 23 10 -8 14 -4 20 17 6 24 1
32 -34 63 -36 31 -41 40 -41 78 0 37 -4 45 -32 62 -53 31 -60 40 -54 70 6 30
-17 57 -66 78 -25 10 -28 17 -28 61 0 45 -2 50 -29 59 -42 15 -55 44 -40 87
15 40 10 47 -42 73 -32 16 -34 20 -34 71 0 42 -4 56 -19 65 -43 25 -55 44 -47
73 11 36 0 65 -36 93 -24 19 -28 29 -28 73 0 49 -1 51 -32 59 -36 9 -36 10
-37 83 -1 47 -3 50 -34 61 -42 13 -52 28 -52 82 0 26 -5 42 -12 43 -7 1 -17 2
-23 4 -5 1 -17 3 -26 3 -9 1 -25 26 -38 57 -20 48 -26 55 -51 55 -33 0 -58 22
-72 61 -5 15 -28 40 -51 56 -23 15 -43 31 -45 35 -2 3 -16 20 -33 37 -16 17
-29 35 -29 40 0 5 -7 11 -17 13 -10 2 -17 14 -18 33 -1 17 -5 41 -9 55 -6 21
-1 32 23 58 59 61 25 74 -39 15z"/>
<path d="M578 2335 c-10 -13 -18 -36 -18 -52 l1 -28 29 35 c31 35 39 70 18 70
-7 0 -21 -11 -30 -25z"/>
<path d="M510 2262 c0 -10 5 -23 11 -29 7 -7 7 -13 1 -17 -6 -3 -13 -2 -17 4
-14 22 -26 9 -20 -23 5 -24 2 -37 -9 -46 -8 -7 -18 -25 -21 -41 -4 -16 -20
-55 -36 -86 -16 -32 -29 -71 -29 -86 0 -16 -6 -41 -14 -56 -15 -30 -31 -165
-27 -228 1 -23 -2 -45 -8 -49 -17 -10 -14 -254 4 -285 8 -14 14 -40 15 -58 0
-19 6 -35 15 -38 8 -4 15 -17 15 -29 0 -13 5 -27 10 -30 6 -3 10 1 10 9 0 9 7
16 15 16 17 0 20 -25 5 -35 -13 -8 -13 -65 0 -65 5 0 13 8 19 18 9 16 10 16
17 -1 4 -10 2 -23 -5 -30 -14 -14 -15 -47 -1 -47 6 0 13 -7 17 -15 9 -25 56
-75 70 -75 7 0 13 -10 13 -23 0 -22 70 -97 90 -97 5 0 21 -17 34 -37 14 -21
35 -51 48 -67 22 -26 26 -28 49 -15 13 8 25 14 27 15 1 0 -22 25 -50 55 -80
82 -128 139 -128 153 0 7 -6 21 -14 32 -15 19 -15 19 -30 -1 -15 -20 -15 -20
-16 2 0 12 5 23 12 25 21 7 -1 55 -35 76 -29 17 -33 24 -29 51 4 26 1 31 -17
31 -23 0 -27 20 -10 48 9 15 7 35 -11 93 -12 41 -29 79 -36 85 -9 7 -14 28
-13 50 3 119 -8 311 -20 333 -14 25 -10 94 7 128 19 37 42 122 42 152 0 19 6
34 15 37 8 4 15 18 15 34 0 15 8 38 18 51 10 13 22 31 25 39 4 8 12 23 19 32
10 14 9 21 -6 37 -23 26 -36 27 -36 3z"/>
<path d="M793 683 c-21 -8 -15 -21 15 -37 15 -8 43 -28 62 -45 41 -36 66 -42
50 -11 -6 11 -19 24 -30 30 -11 6 -27 24 -35 40 -15 28 -33 35 -62 23z"/>
<path d="M983 513 c9 -9 19 -14 23 -11 10 10 -6 28 -24 28 -15 0 -15 -1 1 -17z"/>
<path d="M1038 478 c9 -9 15 -9 24 0 9 9 7 12 -12 12 -19 0 -21 -3 -12 -12z"/>
</g>
</svg>
