<?xml version="1.0" standalone="no"?>
<!DOCTYPE svg PUBLIC "-//W3C//DTD SVG 20010904//EN"
 "http://www.w3.org/TR/2001/REC-SVG-20010904/DTD/svg10.dtd">
<svg version="1.0" xmlns="http://www.w3.org/2000/svg"
 width="900.000000pt" height="504.000000pt" viewBox="0 0 900.000000 504.000000"
 preserveAspectRatio="xMidYMid meet">
<metadata>
Orisha Community of Michigan
</metadata>
<g transform="translate(0.000000,504.000000) scale(0.100000,-0.100000)"
fill="#000000" stroke="none">
<path d="M850 4761 c-52 -17 -86 -40 -119 -81 -37 -46 -86 -80 -116 -80 -35 0
-117 -72 -156 -137 -58 -94 -125 -267 -140 -360 -17 -106 -28 -227 -28 -334
-1 -88 3 -117 23 -170 68 -186 98 -237 226 -380 99 -110 176 -185 242 -234
125 -94 238 -175 244 -175 3 0 18 -8 32 -19 15 -10 54 -33 87 -51 199 -109
253 -130 339 -130 40 0 63 7 109 35 53 32 94 51 186 86 83 31 181 163 205 276
34 159 38 198 43 383 5 187 2 225 -28 390 -30 164 -82 314 -178 511 -38 77
-113 182 -145 201 -6 3 -34 29 -63 57 -47 45 -136 101 -163 101 -5 0 -38 13
-73 30 -103 48 -239 79 -379 85 -68 2 -134 1 -148 -4z m257 -52 c27 -6 69 -17
94 -25 26 -8 58 -14 71 -14 13 0 42 -13 64 -30 21 -16 55 -32 74 -36 55 -11
131 -52 179 -97 143 -136 162 -167 265 -407 8 -19 24 -57 35 -84 12 -27 21
-55 21 -63 0 -9 7 -36 15 -62 44 -140 50 -198 49 -466 -1 -225 -4 -274 -23
-363 -18 -86 -29 -115 -66 -170 -52 -80 -76 -103 -132 -125 -107 -43 -131 -54
-173 -82 -40 -27 -52 -30 -113 -28 -37 1 -80 8 -95 16 -15 7 -43 22 -62 32
-19 10 -66 34 -105 53 -38 20 -88 48 -110 63 -22 15 -65 43 -95 62 -48 30
-116 81 -273 205 -20 17 -55 52 -76 79 -22 26 -69 80 -105 118 -36 39 -66 73
-66 77 0 4 -6 13 -13 20 -19 19 -52 84 -83 163 -35 90 -47 139 -47 195 0 94
20 296 31 317 7 12 12 39 12 60 0 32 15 85 55 188 8 22 40 88 60 123 23 43 96
112 123 118 48 9 93 37 132 81 20 23 57 54 81 68 38 21 56 25 136 25 51 0 114
-5 140 -11z"/>
<path d="M806 4616 c-39 -49 -43 -61 -22 -73 19 -11 66 -93 66 -116 0 -10 42
-60 93 -110 215 -213 315 -425 343 -732 7 -82 16 -161 20 -175 25 -97 58 -187
76 -204 15 -14 18 -26 14 -50 -15 -73 -14 -74 49 -93 29 -9 30 -10 27 -68 -1
-41 2 -66 12 -79 15 -18 17 -18 73 4 67 27 93 46 93 70 0 19 30 50 48 50 15 0
15 15 0 56 -9 27 -9 38 2 59 13 25 12 28 -18 51 -24 19 -32 33 -32 57 0 38 -7
50 -37 66 -15 7 -23 21 -23 36 0 24 -12 40 -58 77 -14 11 -22 29 -22 48 0 23
-7 33 -31 46 -29 15 -31 19 -25 54 6 40 3 45 -39 74 -14 10 -19 24 -17 49 2
34 -1 40 -43 75 -11 10 -14 23 -10 43 5 24 1 35 -26 61 -25 26 -32 40 -30 66
1 27 -4 36 -29 50 -26 15 -30 23 -30 60 0 38 -3 44 -29 53 -28 10 -41 32 -41
75 0 16 -8 23 -28 27 -21 4 -33 16 -47 47 -14 31 -26 43 -48 47 -19 4 -37 19
-52 43 -13 20 -43 52 -67 71 -57 45 -74 67 -88 112 -10 33 -8 42 9 71 39 63
18 64 -33 2z"/>
<path d="M557 4421 c-26 -35 -47 -72 -47 -83 0 -26 16 -14 40 30 11 20 30 49
41 63 12 15 19 33 17 40 -3 8 -24 -12 -51 -50z"/>
<path d="M488 4304 c-5 -4 -8 -22 -8 -39 0 -18 -6 -38 -13 -44 -33 -27 -65
-205 -74 -402 -5 -124 -4 -151 11 -179 9 -18 16 -38 16 -45 0 -7 9 -20 21 -31
16 -14 19 -26 14 -51 -5 -26 -3 -33 10 -33 9 0 15 -9 15 -25 0 -13 14 -39 30
-57 51 -55 56 -62 63 -80 4 -10 11 -18 17 -18 5 0 10 -7 10 -15 0 -8 5 -15 11
-15 7 0 36 -26 65 -57 41 -45 56 -55 65 -46 9 9 -2 27 -51 80 -34 37 -67 79
-73 93 -7 14 -17 29 -24 33 -7 4 -13 17 -13 29 0 11 -11 29 -25 40 -14 11 -25
26 -25 34 0 8 -4 22 -9 32 -5 9 -14 48 -21 87 -6 38 -17 77 -25 85 -9 10 -15
60 -19 155 -4 77 -9 162 -12 189 -4 27 -1 58 4 70 32 64 64 235 40 210z"/>
<path d="M754 3139 c-7 -12 13 -29 35 -29 8 0 11 6 7 16 -3 9 -6 18 -6 20 0 9
-29 3 -36 -7z"/>
<path d="M4934 4290 c-109 -38 -165 -83 -204 -161 -27 -53 -30 -68 -30 -154 0
-87 3 -102 30 -156 39 -79 102 -152 209 -241 121 -101 219 -197 246 -238 37
-58 51 -141 35 -203 -35 -138 -143 -209 -295 -192 -135 15 -212 81 -229 198
-5 30 -12 47 -19 44 -16 -5 -26 -65 -26 -159 -1 -92 11 -108 98 -134 79 -24
268 -24 334 -1 102 36 154 72 202 138 50 68 69 130 69 229 0 167 -73 279 -294
450 -99 78 -182 158 -214 208 -21 34 -26 54 -26 107 0 104 39 164 133 204 59
25 121 27 190 4 79 -25 111 -55 136 -123 12 -33 26 -60 31 -60 13 0 22 75 18
154 l-3 69 -75 19 c-100 24 -247 23 -316 -2z"/>
<path d="M8022 4273 c-6 -15 -22 -59 -36 -98 -14 -38 -35 -95 -46 -125 -12
-30 -32 -86 -45 -125 -13 -38 -33 -95 -45 -125 -31 -81 -69 -185 -97 -265 -13
-38 -31 -88 -40 -110 -22 -57 -36 -94 -90 -240 -76 -208 -103 -244 -192 -255
-25 -3 -46 -11 -49 -17 -3 -10 41 -13 198 -13 157 0 201 3 198 13 -3 6 -19 13
-36 15 -19 2 -39 13 -51 27 -18 24 -18 26 4 102 47 162 80 261 116 341 l19 42
200 0 200 0 19 -42 c11 -24 26 -62 35 -85 9 -24 23 -61 31 -83 8 -22 22 -59
31 -82 9 -24 23 -61 31 -83 8 -22 21 -54 28 -71 11 -26 11 -36 0 -58 -11 -21
-11 -28 -2 -31 19 -5 340 -13 355 -8 28 10 12 33 -23 33 -20 0 -53 9 -74 19
-62 32 -98 91 -175 291 -21 52 -51 129 -68 170 -33 82 -41 104 -88 230 -18 47
-47 121 -66 166 -18 44 -45 114 -59 155 -14 41 -40 108 -57 149 -16 41 -37 93
-45 115 -23 62 -29 70 -50 73 -15 2 -24 -5 -31 -25z m21 -295 c15 -29 92 -247
112 -318 4 -14 11 -29 15 -35 12 -18 32 -103 26 -113 -3 -6 -75 -10 -164 -11
-123 -1 -162 1 -170 12 -9 10 -6 31 14 88 14 41 29 88 34 104 4 17 13 44 19
60 10 29 69 207 77 233 6 21 20 13 37 -20z"/>
<path d="M2336 4271 c-7 -11 18 -21 55 -21 32 0 65 -27 79 -66 16 -41 12
-1075 -3 -1151 -14 -66 -38 -103 -68 -103 -27 0 -50 -11 -43 -21 7 -12 431
-12 438 0 8 12 -18 21 -62 21 -46 1 -67 17 -87 63 -20 48 -22 482 -2 490 17 6
211 0 236 -8 12 -3 21 -10 21 -14 0 -8 225 -313 277 -376 68 -82 132 -139 179
-161 48 -22 66 -24 194 -24 109 0 141 3 138 13 -3 6 -29 15 -59 18 -68 8 -125
36 -195 100 -59 54 -200 215 -278 319 -87 115 -111 145 -118 148 -20 9 -5 51
28 83 48 45 124 161 147 224 11 31 18 82 19 135 1 73 -2 93 -25 140 -46 97
-110 150 -218 180 -66 18 -103 20 -361 20 -158 0 -289 -4 -292 -9z m551 -68
c129 -59 193 -172 192 -343 0 -168 -70 -285 -186 -310 -59 -13 -225 1 -248 20
-13 11 -15 59 -15 325 0 241 3 314 13 318 6 3 55 6 108 6 72 1 107 -3 136 -16z"/>
<path d="M3862 4268 c3 -7 21 -16 42 -19 41 -7 62 -29 71 -74 3 -16 5 -286 3
-600 -3 -554 -4 -571 -24 -605 -15 -26 -28 -36 -54 -40 -18 -3 -35 -11 -38
-17 -3 -10 45 -13 217 -13 199 0 260 7 215 24 -9 3 -32 6 -52 6 -44 1 -67 16
-82 56 -21 52 -32 381 -27 784 5 437 8 463 65 476 45 10 52 13 52 24 0 6 -68
10 -196 10 -152 0 -195 -3 -192 -12z"/>
<path d="M5755 4270 c-3 -5 7 -12 22 -15 66 -13 78 -21 98 -60 19 -38 20 -60
20 -565 0 -650 -5 -692 -89 -702 -16 -1 -31 -9 -34 -15 -3 -10 45 -13 218 -13
173 0 221 3 218 13 -3 6 -24 13 -49 15 -100 7 -111 51 -107 422 l3 275 375 5
c206 3 385 2 398 -2 22 -7 22 -9 22 -200 -1 -106 -5 -251 -10 -321 -7 -113
-11 -132 -31 -153 -12 -13 -30 -24 -40 -24 -27 0 -50 -11 -43 -21 3 -5 101 -9
219 -9 118 0 216 4 219 9 8 12 -18 21 -55 21 -43 0 -69 17 -85 55 -18 43 -30
684 -19 998 8 241 11 253 74 266 19 3 36 12 39 19 3 9 -44 12 -202 12 -112 0
-207 -4 -210 -9 -7 -11 17 -21 52 -21 15 0 37 -8 50 -18 31 -24 41 -105 42
-334 0 -165 -1 -178 -19 -188 -30 -15 -753 -14 -769 2 -9 9 -12 76 -12 241 0
277 2 285 93 299 10 2 18 8 18 13 -1 14 -397 19 -406 5z"/>
<path d="M700 2513 c-131 -28 -247 -119 -313 -248 -30 -58 -32 -64 -31 -185 0
-122 0 -127 33 -192 88 -176 264 -272 464 -252 100 10 247 86 247 128 0 16
-66 93 -91 106 -12 7 -33 1 -75 -20 -48 -24 -72 -30 -126 -30 -141 0 -242 93
-255 235 -8 85 16 157 69 213 59 62 91 76 178 76 62 1 86 -4 137 -28 l63 -29
44 39 c60 53 67 79 30 110 -42 35 -100 61 -174 79 -77 17 -113 17 -200 -2z"/>
<path d="M1628 2514 c-134 -32 -246 -121 -309 -244 -32 -63 -33 -69 -34 -185
0 -144 14 -189 87 -281 83 -103 163 -150 283 -165 153 -19 259 11 369 105 123
105 175 283 131 454 -24 91 -48 132 -118 199 -70 67 -126 98 -222 119 -74 17
-114 16 -187 -2z m180 -190 c50 -16 116 -68 144 -114 62 -103 32 -260 -65
-334 -120 -92 -293 -68 -373 52 -72 108 -71 199 5 304 30 42 88 81 151 102 31
10 89 6 138 -10z"/>
<path d="M2511 2503 c-7 -16 -17 -59 -22 -98 -5 -38 -13 -90 -18 -115 -6 -25
-19 -110 -31 -190 -11 -80 -25 -161 -30 -180 -5 -20 -14 -65 -20 -100 -5 -36
-14 -85 -19 -110 -5 -27 -6 -49 0 -56 13 -16 156 -15 169 1 10 12 28 121 49
291 5 34 11 67 16 73 13 22 46 -19 88 -109 22 -47 43 -87 47 -90 3 -3 24 -40
45 -83 70 -141 85 -138 168 25 157 310 177 324 192 133 6 -87 31 -234 41 -244
2 -3 37 -6 77 -7 71 -3 100 7 92 29 -3 7 -9 48 -15 92 -6 44 -17 118 -25 165
-20 112 -44 251 -55 320 -14 93 -40 234 -46 253 -6 20 -37 23 -52 5 -11 -15
-67 -118 -123 -226 -21 -41 -43 -80 -50 -88 -7 -8 -33 -56 -58 -107 -57 -114
-73 -121 -115 -45 -98 180 -156 289 -193 360 -73 140 -88 153 -112 101z"/>
<path d="M3711 2517 c-6 -8 -16 -49 -22 -93 -6 -43 -15 -87 -20 -96 -5 -10 -9
-34 -9 -53 0 -20 -7 -68 -15 -108 -7 -40 -19 -103 -24 -142 -6 -38 -17 -106
-25 -150 -41 -223 -40 -216 -26 -225 10 -6 135 -7 161 -1 6 1 9 13 34 176 33
210 40 228 71 179 9 -16 25 -41 35 -55 10 -15 21 -40 25 -55 4 -15 17 -42 28
-59 12 -17 39 -68 61 -113 38 -78 42 -82 70 -80 28 3 36 15 127 188 53 102
103 186 112 188 23 5 33 -24 45 -138 14 -122 31 -210 43 -227 14 -18 157 -16
164 2 3 8 -1 51 -10 97 -9 46 -20 117 -26 158 -14 104 -34 229 -55 335 -10 50
-25 131 -34 180 -14 78 -19 90 -37 93 -21 3 -36 -21 -151 -231 -8 -15 -32 -60
-54 -100 -22 -40 -53 -100 -70 -135 -37 -77 -62 -81 -95 -16 -11 22 -30 54
-41 70 -11 16 -24 40 -28 53 -4 13 -20 46 -36 73 -16 27 -29 51 -29 54 0 3 -9
18 -19 32 -10 15 -38 65 -62 112 -51 102 -64 115 -88 87z"/>
<path d="M5812 2518 c-9 -9 -12 -120 -12 -439 0 -380 2 -428 16 -433 28 -11
150 -6 162 6 9 9 12 76 12 240 0 182 3 228 13 228 14 0 97 -75 133 -120 11
-14 99 -103 196 -198 160 -158 178 -173 197 -162 21 11 21 12 19 438 l-3 427
-78 3 c-48 2 -84 -2 -92 -8 -11 -9 -13 -54 -12 -206 2 -192 -2 -234 -23 -234
-6 0 -88 76 -183 169 -95 93 -188 182 -207 197 -19 16 -50 46 -68 67 -36 39
-51 44 -70 25z"/>
<path d="M8128 2512 c-44 -4 -48 -18 -19 -60 10 -15 72 -108 137 -207 l119
-180 5 -210 5 -210 85 0 85 0 5 216 c4 194 7 219 24 238 54 59 268 391 262
406 -4 11 -23 15 -78 15 -40 0 -83 -3 -95 -6 -19 -5 -104 -116 -149 -195 -6
-10 -19 -28 -29 -39 -25 -28 -45 -14 -95 67 -39 61 -70 103 -114 155 -15 17
-43 19 -148 10z"/>
<path d="M4804 2496 c-3 -7 -4 -150 -2 -317 l3 -304 26 -53 c47 -94 142 -163
254 -184 177 -32 344 66 398 232 16 48 18 89 15 345 l-3 290 -90 0 -90 0 -5
-295 c-6 -326 -4 -319 -74 -366 -66 -45 -164 -28 -216 38 -32 41 -39 108 -39
367 0 132 -3 245 -6 251 -10 16 -165 13 -171 -4z"/>
<path d="M6897 2504 c-4 -4 -7 -197 -7 -430 0 -375 2 -423 16 -428 23 -9 137
-7 152 2 10 7 12 100 10 433 l-3 424 -80 3 c-45 1 -84 0 -88 -4z"/>
<path d="M7324 2497 c-3 -8 -4 -45 -2 -83 l3 -69 92 -5 c50 -3 94 -8 98 -12 4
-4 6 -154 6 -333 -2 -237 1 -331 10 -341 12 -14 131 -20 163 -8 14 5 16 45 16
338 0 245 3 335 12 344 8 8 45 12 100 12 l89 0 -3 83 -3 82 -288 3 c-235 2
-288 0 -293 -11z"/>
<path d="M1370 1371 c-55 -12 -94 -36 -143 -91 -58 -64 -87 -116 -116 -207
-13 -40 -31 -79 -40 -87 -9 -8 -39 -16 -66 -18 -42 -3 -50 -6 -50 -23 0 -16 8
-21 40 -23 64 -4 64 -5 48 -64 -8 -29 -21 -80 -28 -114 -8 -33 -24 -96 -36
-140 -12 -43 -25 -95 -30 -114 -35 -157 -75 -270 -99 -285 -20 -12 -70 -8 -89
8 -38 34 -62 40 -82 21 -24 -22 -24 -45 0 -75 17 -21 27 -24 83 -23 131 2 193
76 261 317 10 31 24 83 33 115 9 31 21 68 25 82 5 14 20 72 35 130 14 58 30
113 35 122 7 14 26 18 87 20 71 3 77 5 80 26 4 23 -12 28 -84 23 -17 -1 -36 4
-43 13 -29 35 58 252 126 314 56 50 93 41 126 -30 20 -43 39 -48 61 -16 51 73
-27 141 -134 119z"/>
<path d="M2494 1163 c-31 -65 -73 -154 -93 -198 -21 -44 -59 -124 -84 -178
-26 -54 -47 -101 -47 -105 0 -4 -11 -20 -23 -36 l-24 -29 -37 79 c-123 259
-283 574 -292 574 -12 0 -30 -104 -44 -250 -40 -424 -52 -498 -80 -521 -27
-23 -16 -29 60 -29 76 0 88 6 59 29 -11 9 -20 25 -21 36 -1 30 21 288 32 375
5 41 9 83 10 93 0 37 29 14 50 -40 39 -103 235 -478 250 -481 10 -2 29 26 57
85 23 49 79 165 124 258 44 94 86 181 91 195 9 23 10 24 22 7 15 -19 18 -49
41 -341 9 -110 18 -203 21 -208 8 -12 174 -10 174 2 0 6 -8 10 -17 10 -22 1
-46 19 -61 46 -11 20 -17 62 -46 324 -34 298 -49 411 -57 416 -5 3 -34 -48
-65 -113z"/>
<path d="M3722 1255 c-114 -43 -193 -122 -237 -237 -14 -37 -16 -69 -13 -165
3 -105 7 -124 32 -173 33 -66 54 -90 122 -141 86 -64 157 -83 309 -83 76 0
147 5 172 12 39 12 43 16 58 68 9 31 14 68 12 82 l-3 27 -11 -26 c-6 -14 -26
-42 -45 -61 -43 -47 -100 -62 -201 -55 -159 11 -284 108 -338 264 -25 72 -26
200 -2 274 24 75 108 159 178 180 64 18 206 18 268 0 47 -14 108 -60 119 -91
4 -12 8 -12 18 -3 18 16 26 108 10 118 -30 19 -156 35 -265 34 -100 0 -130 -4
-183 -24z"/>
<path d="M6291 1255 c-35 -13 -80 -35 -100 -49 -40 -28 -98 -102 -123 -156
-72 -158 -36 -370 81 -478 76 -71 225 -122 356 -122 64 0 179 24 210 44 22 15
23 21 27 165 2 125 6 152 21 168 9 11 17 23 17 26 0 4 -38 7 -85 7 -84 0 -104
-9 -65 -30 19 -10 20 -21 20 -148 0 -75 -4 -142 -8 -149 -22 -35 -163 -45
-248 -16 -51 17 -139 70 -166 100 -36 40 -86 152 -98 215 -19 108 9 235 67
304 57 66 150 104 258 104 134 0 239 -49 258 -120 12 -48 25 -25 29 54 l3 69
-75 18 c-115 28 -295 25 -379 -6z"/>
<path d="M7312 1271 c-6 -4 -25 -45 -41 -92 -17 -46 -39 -109 -51 -139 -12
-30 -34 -91 -50 -135 -15 -44 -42 -118 -59 -165 -18 -47 -39 -105 -47 -130
-24 -67 -51 -107 -79 -114 -52 -13 -23 -26 60 -26 47 0 85 3 85 7 0 3 -7 14
-16 24 -14 16 -12 27 22 131 20 62 44 121 52 131 13 14 32 17 117 16 56 0 106
-4 112 -7 9 -6 26 -45 88 -202 8 -19 16 -48 17 -65 l3 -30 79 -3 c100 -4 124
4 77 24 -41 17 -58 39 -89 114 -13 30 -27 64 -32 75 -5 11 -29 74 -55 140 -72
185 -77 198 -91 232 -8 17 -14 35 -14 40 0 9 -66 172 -72 178 -2 2 -9 1 -16
-4z m45 -297 c48 -134 48 -135 32 -145 -23 -14 -155 -11 -168 4 -8 11 -1 45
30 142 49 151 51 151 106 -1z"/>
<path d="M7944 1269 c-4 -7 -9 -178 -10 -379 l-3 -365 -25 -21 c-13 -12 -22
-25 -19 -28 10 -10 183 -7 183 3 0 5 -9 11 -19 14 -44 11 -49 37 -52 316 -3
178 -1 265 6 268 6 2 56 -47 110 -109 204 -231 480 -511 498 -505 9 3 13 93
17 380 5 377 5 377 28 392 38 28 25 35 -63 35 -47 0 -85 -3 -85 -7 0 -4 12
-20 27 -35 l28 -29 3 -274 c4 -239 2 -275 -11 -275 -8 0 -50 39 -93 87 -44 47
-90 98 -104 112 -14 15 -79 85 -145 156 -234 252 -261 279 -271 264z"/>
<path d="M3010 1263 c0 -2 9 -16 20 -30 19 -25 20 -41 20 -365 l0 -339 -24
-24 c-13 -13 -21 -26 -18 -29 7 -8 151 -7 181 1 23 6 23 6 -6 18 -22 9 -32 22
-37 45 -3 18 -6 173 -6 344 1 251 3 316 15 336 24 42 19 46 -65 47 -44 1 -80
-1 -80 -4z"/>
<path d="M4475 1248 c17 -56 24 -159 23 -393 0 -299 -4 -345 -35 -361 -37 -18
-15 -24 88 -24 94 0 135 11 85 24 -36 9 -45 51 -47 218 -1 106 2 152 11 163
18 22 421 22 440 0 9 -10 11 -61 9 -185 -4 -165 -5 -172 -27 -188 -13 -10 -20
-21 -16 -25 10 -10 194 -9 194 1 0 5 -11 14 -24 20 -33 15 -36 44 -36 390 0
253 3 308 15 333 9 16 13 34 10 39 -3 6 -35 10 -71 10 -72 0 -87 -13 -60 -52
20 -28 23 -257 4 -276 -17 -17 -419 -17 -436 0 -18 18 -16 236 3 281 8 20 15
38 15 40 0 1 -34 4 -76 6 -76 2 -77 2 -69 -21z"/>
<path d="M5560 1265 c0 -4 9 -20 20 -36 20 -27 21 -40 18 -370 l-3 -342 -22
-15 c-13 -8 -23 -18 -23 -23 0 -12 197 -12 204 0 3 5 -6 12 -19 15 -15 4 -30
18 -35 32 -6 14 -10 166 -10 350 0 284 2 328 16 350 9 13 14 27 11 30 -8 9
-157 18 -157 9z"/>
<path d="M614 981 c-68 -17 -168 -110 -213 -199 -23 -43 -51 -145 -51 -181 1
-59 33 -118 76 -136 46 -19 69 -19 126 1 121 41 248 233 248 375 0 46 -31 114
-59 128 -27 15 -91 21 -127 12z m78 -48 c33 -30 21 -113 -40 -263 -31 -76 -97
-162 -132 -171 -26 -6 -59 5 -72 25 -34 51 64 313 145 389 44 40 70 46 99 20z"/>
</g>
</svg>
