<?xml version="1.0" standalone="no"?>
<!DOCTYPE svg PUBLIC "-//W3C//DTD SVG 20010904//EN"
 "http://www.w3.org/TR/2001/REC-SVG-20010904/DTD/svg10.dtd">
<svg version="1.0" xmlns="http://www.w3.org/2000/svg"
 width="368.000000pt" height="368.000000pt" viewBox="0 0 368.000000 368.000000"
 preserveAspectRatio="xMidYMid meet">
<metadata>
Created by potrace 1.11, written by Peter Selinger 2001-2013
</metadata>
<g transform="translate(0.000000,368.000000) scale(0.100000,-0.100000)"
fill="#000000" stroke="none">
<path d="M1321 3378 c-56 -18 -74 -31 -150 -108 -86 -88 -147 -130 -187 -130
-52 0 -200 -131 -244 -217 -13 -26 -34 -64 -45 -83 -51 -84 -151 -372 -160
-460 -3 -35 -10 -71 -15 -81 -32 -58 -56 -517 -34 -626 19 -95 132 -367 195
-473 25 -42 48 -69 146 -176 41 -45 88 -99 105 -120 62 -76 246 -251 281 -267
20 -10 39 -22 42 -27 12 -20 224 -178 330 -247 123 -79 340 -205 446 -258 133
-67 164 -76 294 -81 l121 -4 90 58 c50 31 124 70 165 85 168 63 212 93 287
189 107 139 147 244 182 478 20 132 21 163 22 436 1 410 -2 453 -60 694 -17
69 -34 143 -38 164 -4 22 -29 94 -57 160 -27 67 -58 145 -68 175 -23 65 -94
209 -156 312 -96 163 -380 410 -513 448 -25 7 -85 31 -133 52 -49 22 -113 46
-142 54 -29 7 -62 18 -73 24 -10 5 -41 13 -68 16 -27 4 -65 11 -84 17 -19 6
-120 12 -225 13 -170 3 -197 1 -254 -17z m449 -71 c30 -9 73 -18 95 -20 22 -3
60 -12 84 -21 24 -9 52 -16 62 -16 10 0 61 -23 113 -50 52 -28 117 -55 145
-61 27 -6 55 -17 62 -25 6 -8 19 -14 28 -14 23 0 59 -26 147 -105 42 -39 86
-76 98 -84 26 -19 28 -21 99 -114 145 -192 329 -657 392 -992 4 -16 10 -46 14
-65 11 -52 14 -139 14 -425 0 -388 -3 -423 -52 -628 -24 -103 -48 -158 -106
-248 -69 -107 -147 -172 -223 -185 -14 -3 -50 -16 -79 -30 -30 -13 -56 -24
-59 -24 -4 0 -38 -21 -77 -47 -115 -77 -191 -85 -337 -36 -72 23 -239 107
-251 125 -3 5 -16 10 -29 13 -12 2 -30 10 -39 18 -9 7 -29 19 -46 26 -39 17
-289 176 -321 204 -26 23 -42 36 -165 127 -160 119 -231 181 -281 244 -22 28
-81 96 -132 150 -176 192 -212 246 -295 453 -70 174 -85 248 -77 396 4 71 9
145 11 165 2 21 7 66 10 102 3 36 7 72 8 80 2 8 9 40 15 70 6 30 16 84 22 120
6 36 22 88 34 115 13 28 26 67 30 88 9 50 99 229 152 304 58 81 115 128 172
143 67 16 118 49 187 119 73 76 127 114 183 133 59 20 315 17 392 -5z"/>
<path d="M1334 3221 c-36 -22 -95 -91 -88 -103 3 -4 -2 -11 -10 -14 -23 -9
-20 -22 12 -54 42 -43 70 -84 78 -113 4 -17 15 -29 30 -33 17 -4 24 -13 24
-29 0 -13 -4 -27 -10 -30 -15 -10 -12 -25 7 -32 24 -9 245 -227 285 -280 17
-24 38 -43 45 -43 7 0 13 -4 13 -8 0 -4 38 -75 85 -157 83 -147 131 -257 174
-405 40 -136 40 -138 55 -310 7 -83 17 -182 21 -210 12 -85 17 -118 25 -145 5
-16 11 -42 14 -57 2 -15 16 -61 30 -102 14 -41 26 -80 26 -88 0 -7 16 -30 35
-51 39 -42 42 -58 20 -110 -17 -41 -20 -83 -6 -92 5 -3 33 -10 62 -15 29 -6
58 -15 64 -21 5 -5 11 -49 11 -97 2 -128 3 -136 17 -156 13 -18 14 -18 32 0
10 10 49 31 88 46 94 38 121 60 135 106 14 47 27 59 67 64 37 4 44 29 19 66
-17 25 -44 88 -44 104 0 4 9 7 21 5 14 -1 24 6 30 21 8 20 2 31 -41 76 -43 45
-50 59 -50 93 0 44 -10 60 -60 93 -45 31 -50 38 -50 78 0 25 -8 42 -31 63 -17
16 -37 29 -44 29 -23 0 -39 31 -41 79 -1 25 -3 49 -3 53 -1 4 -16 14 -35 22
-42 18 -60 48 -52 90 14 73 15 72 -69 121 -16 10 -23 40 -24 108 -1 15 -11 36
-23 47 -13 12 -31 29 -41 38 -13 12 -18 29 -16 57 3 59 2 60 -41 110 -34 40
-40 53 -40 93 0 57 -7 68 -43 77 -40 10 -43 20 -46 136 -1 20 -10 30 -42 44
-48 22 -58 38 -63 100 -2 25 -5 48 -8 50 -2 3 -22 8 -43 13 -36 7 -42 13 -70
70 -22 48 -36 64 -55 68 -47 9 -75 30 -96 69 -11 22 -44 59 -73 83 -56 46
-131 127 -131 143 0 5 -6 9 -14 9 -16 0 -22 15 -32 75 -10 68 -9 74 26 115 29
33 39 60 23 60 -5 0 -22 -9 -39 -19z"/>
<path d="M931 2916 c-12 -18 -21 -46 -21 -62 l1 -29 34 39 c36 40 47 86 21 86
-8 0 -24 -15 -35 -34z"/>
<path d="M850 2827 c0 -13 5 -28 12 -35 17 -17 3 -26 -20 -13 -26 14 -33 4
-26 -35 5 -25 1 -40 -15 -60 -12 -15 -21 -31 -21 -36 0 -5 -15 -44 -34 -86
-33 -77 -79 -237 -91 -322 -3 -25 -8 -83 -10 -130 -2 -47 -8 -102 -14 -124
-15 -58 -6 -292 13 -345 9 -24 16 -54 16 -67 0 -12 7 -30 16 -38 8 -9 18 -28
20 -43 7 -37 12 -40 28 -17 12 15 17 16 27 7 9 -9 9 -16 2 -25 -15 -18 -23
-77 -11 -84 5 -3 18 2 28 11 25 23 32 0 12 -42 -15 -30 -14 -32 24 -80 52 -64
56 -68 82 -82 12 -6 22 -20 22 -30 0 -22 86 -121 105 -121 8 0 38 -34 67 -75
29 -41 61 -77 70 -80 20 -7 58 11 58 26 0 6 -24 36 -54 67 -103 108 -136 147
-156 189 -24 52 -36 59 -61 37 -24 -22 -27 0 -4 34 20 27 9 51 -46 102 -30 29
-36 40 -32 62 4 23 1 29 -21 38 -29 11 -31 18 -14 55 14 32 -1 108 -41 191
-26 56 -28 70 -34 239 -7 174 -10 211 -24 265 -15 59 -9 108 23 205 18 55 35
120 38 144 3 24 12 51 21 61 8 9 15 23 15 31 0 15 16 48 64 132 23 41 25 51
14 65 -29 38 -48 41 -48 9z"/>
<path d="M1208 862 c-33 -7 -18 -29 55 -82 39 -30 77 -57 84 -62 6 -5 14 -5
17 1 4 6 -11 27 -32 48 -21 21 -46 50 -56 64 -18 28 -39 38 -68 31z"/>
<path d="M1438 647 c12 -11 25 -18 29 -14 9 9 -12 30 -33 33 -14 2 -13 -1 4
-19z"/>
<path d="M1507 604 c3 -8 10 -13 15 -12 16 6 14 21 -4 24 -11 1 -15 -3 -11
-12z"/>
</g>
</svg>
